<?xml version="1.0" standalone="no"?>
<!DOCTYPE svg PUBLIC "-//W3C//DTD SVG 1.1//EN" "http://www.w3.org/Graphics/SVG/1.1/DTD/svg11.dtd" >
<!--
2013-9-30: Created.
-->
<svg>
<metadata>
Created by iconfont
</metadata>
<defs>

<font id="iconfont" horiz-adv-x="1024" >
  <font-face
    font-family="iconfont"
    font-weight="500"
    font-stretch="normal"
    units-per-em="1024"
    ascent="896"
    descent="-128"
  />
    <missing-glyph />
    
    <glyph glyph-name="shanchu" unicode="&#58880;" d="M731.918024 631.466274 293.285433 631.466274c-40.383364 0-73.105944-32.720216-73.105944-73.102948l0-24.367991 584.843455 0 0 24.367991C805.023968 598.746058 772.302411 631.466274 731.918024 631.466274M604.221575 680.201232l10.756412-76.909647L410.22547 603.291584l10.755389 76.909647L604.221575 680.201232M610.076149 728.936189l-194.947818 0c-20.108791 0-38.813548-16.276708-41.621615-36.217876l-14.254216-101.968369c-2.78453-19.916609 11.399075-36.19434 31.507865-36.19434l243.684773 0c20.107767 0 34.292396 16.276708 31.484328 36.217876l-14.255239 101.968369C648.887651 712.659481 630.183917 728.936189 610.076149 728.936189M744.102007 485.261401 281.100427 485.261401c-26.795347 0-46.761893-21.845541-44.334511-48.544623L276.699007-2.278511c2.402821-26.700105 26.344051-48.544623 53.139398-48.544623l365.527671 0c26.795347 0 50.735553 21.845541 53.139398 48.544623l39.932067 438.995289C790.8639 463.41586 770.897354 485.261401 744.102007 485.261401M415.128331 46.646781l-73.105944 0-24.368989 341.144704 97.473909 0L415.127308 46.646781zM561.339195 46.646781l-97.473909 0L463.865286 387.791485l97.473909 0L561.339195 46.646781zM683.18107 46.646781l-73.105944 0L610.075126 387.791485l97.473909 0L683.18107 46.646781z"  horiz-adv-x="1024" />

    
    <glyph glyph-name="dayuhao" unicode="&#58915;" d="M716.705 289.892c-0.378 4.264-2.197 8.425-5.468 11.689l-373.999 374.026c-7.388 7.379-19.343 7.379-26.712 0-7.388-7.379-7.388-19.334 0-26.713l360.79-360.817-360.79-360.816c-7.388-7.38-7.388-19.335 0-26.713 7.388-7.38 19.325-7.38 26.712 0l374.033 374.063c4.182 4.18 5.988 9.829 5.433 15.282z"  horiz-adv-x="1024" />

    
    <glyph glyph-name="weizhi" unicode="&#58921;" d="M792.947 600.184c-1.523 6.993-5.091 13.036-10.586 17.366-23.050 36.349-53.499 68.13-89.967 92.346-0.761 0.738-1.688 1.117-2.451 1.76-2.189 1.475-4.542 2.759-6.803 4.115-0.571 0.19-0.952 0.642-1.522 0.832-49.052 29.926-107.167 47.553-169.729 47.553-174.938 0-316.787-135.782-316.787-303.418 0-77.836 30.806-148.534 81.082-202.151 1.236-1.809 2.080-3.855 3.781-5.495l207.826-208.409c0.559-0.524 0.749-1.284 1.32-1.832 3.116-3.021 6.614-5.21 10.491-6.684 11.715-5.328 26.083-3.592 35.813 5.685 2.474 2.379 4.069 5.233 5.567 8.065l202.533 203.080c1.331 1.284 1.902 2.854 2.949 4.234 50.931 53.785 82.212 125.031 82.212 203.412-0 50.407-13.037 97.769-35.73 139.541zM511.699 336.277c-70.698 0-128.051 54.88-128.051 122.628 0 67.773 57.353 122.651 128.051 122.651 70.77 0 128.052-54.879 128.052-122.651 0-67.653-57.378-122.628-128.052-122.628z"  horiz-adv-x="1024" />

    
    <glyph glyph-name="xiaoyuhao" unicode="&#58885;" d="M276.573 386.153a21.379 21.379 0 0 0 6.221 13.299L708.321 825.01c8.406 8.396 22.008 8.396 30.393 0 8.407-8.396 8.407-21.998 0-30.394L328.216 384.087l410.498-410.528c8.407-8.397 8.407-21.999 0-30.394-8.406-8.397-21.987-8.397-30.393 0l-425.568 425.6c-4.757 4.756-6.813 11.183-6.18 17.388z"  horiz-adv-x="1024" />

    
    <glyph glyph-name="qqkongjian" unicode="&#58881;" d="M958.011 485.478c-1.752 5.304-6.442 9.083-12.023 9.553l-302.855 25.999-118.383 280.037c-2.194 5.138-7.183 8.485-12.767 8.485-5.585 0-10.629-3.369-12.807-8.507l-118.323-280.015-302.871-25.999c-5.547-0.47-10.298-4.249-12.028-9.553-1.689-5.32-0.093-11.15 4.116-14.795l229.758-199.050-68.883-296.098c-1.249-5.419 0.872-11.133 5.338-14.408 4.546-3.255 10.574-3.498 15.396-0.597l260.304 156.968 260.246-157.002c2.255-1.359 4.73-2.049 7.26-2.049 2.813 0 5.696 0.874 8.156 2.624 4.503 3.352 6.624 9.044 5.341 14.463l-54.479 234.133c23.32 11.766 49.099 31.623 49.099 31.623s-101.961-49.789-467.951-25.48l265.292 192.238c0 0-10.442 16.21-342.874 27.806-22.166 0.8 271.065 55.599 487.666 9.288l-266.355-191.063c0 0 106.84-15.879 268.142-14.034l-7.372 31.569 229.78 199.067c4.226 3.646 5.827 9.475 4.077 14.795v0zM958.011 485.478z"  horiz-adv-x="1024" />

    
    <glyph glyph-name="fenxiang" unicode="&#58920;" d="M972.8 346.0864v-294.7584A128.0768 128.0768 0 0 0 844.8-76.8H179.2a128 128 0 0 0-128 128V716.8c0 70.7328 57.1904 128 127.872 128h202.3168a25.6 25.6 0 0 1 0 51.2H179.072A179.072 179.072 0 0 1 0 716.8v-665.6a179.2 179.2 0 0 1 179.2-179.2h665.6c98.944 0 179.2 80.2816 179.2 179.328V346.0864a25.6 25.6 0 0 1-51.2 0zM960 768c-353.4592 0-640-286.5408-640-640a25.6 25.6 0 0 1 51.2 0c0 325.1968 263.6032 588.8 588.8 588.8a25.6 25.6 0 0 1 0 51.2zM720.1024 833.8432l256-102.4a25.6 25.6 0 0 1 18.9952 47.5136l-256 102.4a25.6 25.6 0 0 1-18.9952-47.5136zM808.8064 547.5328l194.6368 189.312a25.6 25.6 0 1 1-35.6864 36.7104L773.12 584.2432a25.6 25.6 0 1 1 35.6864-36.7104z"  horiz-adv-x="1024" />

    
    <glyph glyph-name="fanhui1" unicode="&#58916;" d="M710.153924 887.019603L266.007127 435.307476a81.118646 81.118646 0 0 1 0.861532-114.476097l446.192936-441.050666a26.922883 26.922883 0 0 1 37.853573 38.284339L304.722232 359.115718a27.27288 27.27288 0 0 0-0.323074 38.445877L748.545955 849.273722A26.922883 26.922883 0 1 1 710.180847 886.99268z"  horiz-adv-x="1024" />

    
    <glyph glyph-name="guanbi1" unicode="&#58917;" d="M512 439.689846L94.247385 857.442462a39.542154 39.542154 0 0 1-55.689847 0 39.266462 39.266462 0 0 1 0-55.689847L456.310154 384 38.557538-33.752615a39.542154 39.542154 0 0 1 0-55.689847 39.266462 39.266462 0 0 1 55.689847 0L512 328.310154l417.752615-417.752616c15.163077-15.163077 40.290462-15.36 55.689847 0a39.266462 39.266462 0 0 1 0 55.689847L567.689846 384 985.442462 801.752615a39.542154 39.542154 0 0 1 0 55.689847 39.266462 39.266462 0 0 1-55.689847 0L512 439.689846z"  horiz-adv-x="1024" />

    
    <glyph glyph-name="sousuo1" unicode="&#58930;" d="M474.453333 11.946667c-225.28 0-409.6 184.32-409.6 409.6s184.32 409.6 409.6 409.6 409.6-184.32 409.6-409.6-184.32-409.6-409.6-409.6z m0 68.266666c187.733333 0 341.333333 153.6 341.333334 341.333334s-153.6 341.333333-341.333334 341.333333-341.333333-153.6-341.333333-341.333333 153.6-341.333333 341.333333-341.333334z m252.586667-54.613333c-13.653333 13.653333-10.24 37.546667 3.413333 47.786667s37.546667 10.24 47.786667-3.413334l64.853333-78.506666c13.653333-13.653333 10.24-37.546667-3.413333-47.786667s-37.546667-10.24-47.786667 3.413333l-64.853333 78.506667z"  horiz-adv-x="1024" />

    
    <glyph glyph-name="ding" unicode="&#58904;" d="M834.2275229492187 132.8290125000001c-31.678986621093753-36.83565703125-75.3420111328125-72.7877724609375-129.88063125000002-106.828224609375-91.1333109375-56.94827871093751-181.04572792968747-89.09313310546875-184.74053818359374-90.4425416015625a35.518376953125 35.518376953125 0 0 0-10.184826269531252-1.5582462890625h-0.78715546875c-3.4699095703125002 0-6.9398182617187505 0.5622539062499999-10.184826269531252 1.7831478515625-3.6948111328125 1.349409375-92.25781875 33.494262890625-182.0577849609375 90.42647783203125-53.7354 34.056516796875-96.72371982421875 70.00863222656251-127.96896796874998 106.95673916015625C147.21762060546877 181.9539313476563 126.28571416015626 232.76561191406245 126.28571416015626 284.12348173828127V666.488203125c0 12.51416337890625 7.72697373046875 23.791368164062497 19.4861109375 28.257270117187502L509.8713303710938 832.0639189453125A29.7191302734375 29.7191302734375 0 0 0 531.59039140625 831.8390173828125l346.74995917968755-137.430896484375A30.07254638671875 30.07254638671875 0 0 0 897.3766583984374 666.37575234375v-382.36472138671877c0-51.47032060546876-21.2692587890625-102.26593652343749-63.149135449218754-151.18201845703126z m2.79520400390625 513.1288942382812L520.168607421875 771.54934453125l-332.53297031249997-125.92879013671873v-361.49707265625c0-86.08909130859375 87.004761328125-160.113821484375 161.01342773437497-206.9897255859375 67.61503740234375-42.875869042968745 135.69594169921876-71.229526171875 160.43511005859375-80.94848466796876 25.18897060546875 9.718958496093748 95.1654744140625 38.40996796875 164.03353330078124 81.60712470703125 74.79582187499999 46.77951708984375 163.90501875 120.57934658203125 163.90501875 206.331085546875V645.9579067382813zM652.233995703125 249.37619560546887c0-18.10457314453125-3.0201064453125-32.64284970703125-9.0442546875-43.630895214843754a50.04058974609375 50.04058974609375 0 0 0-26.5705083984375-23.2612435546875c-11.67881484375-4.51409501953125-53.0767599609375-7.0040759765625005-124.20989999999999-7.453879101562499a570.8482646484375 570.8482646484375 0 0 1-16.96400068359375 68.99657519531249c22.4740880859375-1.62250400390625 43.148963671875-2.441787890625 62.05675693359375-2.44178876953125 13.092481933593751 0 22.458023437500003 0.6747046875 28.1287546875 2.0080494140625 5.654666601562501 1.3333447265625 10.32940546875 4.70686728515625 14.0563458984375 10.1205685546875 3.7108749023437504 5.41370126953125 5.5743451171875 12.72300029296875 5.5743451171875 21.927898828125002V519.5793143554688h-147.31049970703125v60.9804421875h294.6370623046875v-60.9804421875H652.233995703125v-270.20311875zM315.6206697265625 576.9934608398437l52.24141142578125 29.8315810546875c18.1527662109375-24.33755830078125 37.494297070312506-52.980373828124996 58.02459345703125-85.9123828125l-57.141051855468746-34.281418359374996c-20.53029638671875 38.2814525390625-38.23325947265625 68.40219287109375-53.12495302734375 90.3622201171875z m80.37016611328124-295.56879785156246c13.97602353515625 8.899674609375 35.26134609375 23.743175097656252 63.82384013671875 44.5144376953125a1069.246108300781 1069.246108300781 0 0 1 7.5984591796875005-68.99657519531249c-54.1691384765625-35.6147630859375-90.4746708984375-63.35797236328125-108.93266015625-83.24569248046875l-33.02839599609375 45.41404306640625c7.437814453125001 8.899674609375 11.16475400390625 21.365644921875003 11.1647548828125 37.38184716796875V399.38551318359373h-45.542559375v57.863949609375h104.91656132812498v-175.8247998046875z"  horiz-adv-x="1024" />

    
    <glyph glyph-name="changyonggoupiaorenshanchu" unicode="&#58949;" d="M96 576a32 32 0 1 0 0 64h832a32 32 0 0 0 0-64H96z m736 0h64v-448a160 160 0 0 0-160-160H288a160 160 0 0 0-160 160V576h64v-96H128v96h64v-448a96 96 0 0 1 96-96h448a96 96 0 0 1 96 96V576z m-512-112a32 32 0 0 0 64 0v-320a32 32 0 0 0-64 0v320z m320 0a32 32 0 0 0 64 0v-320a32 32 0 0 0-64 0v320zM288 640H224V704a96 96 0 0 0 96 96h384a96 96 0 0 0 96-96v-64h-64V672h64v-32h-64V704a32 32 0 0 1-32 32H320a32 32 0 0 1-32-32v-64z"  horiz-adv-x="1024" />

    
    <glyph glyph-name="tingchechang" unicode="&#59235;" d="M804.998 466.852l0.002 0.135h-0.007c0.001-0.044 0.005-0.089 0.005-0.135zM512 831.988c-201.584 0-365-163.416-365-365 0-274.66 365-530.976 365-530.976s365 256.315 365 530.976c0 201.584-163.416 365-365 365z m292.984-366.465C803.634 255.187 512 27.211 512 27.211S228.394 248.905 219.23 456.76a171.827 171.827 0 0 0-0.288 9.701c0 0.535 0.027 1.07 0.071 1.603C219.595 629.387 350.54 759.988 512 759.988c161.819 0 293-131.181 293-293l-0.001-0.144 0.001-0.039c0-0.427-0.013-0.855-0.016-1.282zM553.729 655.108h-125.45c-19.882 0-36-16.118-36-36v-371.004h0.058a36.676 36.676 0 0 1-0.058-1.996c0-19.882 16.118-36 36-36s36 16.118 36 36c0 0.67-0.022 1.335-0.058 1.996h0.058V391.123h89.45c72.897 0 131.992 59.095 131.992 131.992s-59.095 131.993-131.992 131.993z m0-191.985h-89.45V583.108h89.45c33.133 0 59.993-26.86 59.993-59.992s-26.86-59.993-59.993-59.993z"  horiz-adv-x="1024" />

    
    <glyph glyph-name="yuanchenghuizhen-" unicode="&#58914;" d="M675.76 365.84000000000003A244.96 244.96 0 1 1 336 360a343.36 343.36 0 0 1-168-294.4v-32.64a48.96 48.96 0 0 1 48.96-48.96h587.76a48.96 48.96 0 0 1 48.96 48.96v32.64a344 344 0 0 1-177.92 300.24zM289.76 539.12a212.88 212.88 0 1 0 212.96-212.88 213.12 213.12 0 0 0-212.96 212.88z m531.92-506.16a16.96 16.96 0 0 0-16.96-16.96H216.96a16.96 16.96 0 0 0-16.96 16.96v32.64a310.96 310.96 0 0 0 162.32 272.88 244.8 244.8 0 0 1 287.6 4.96 311.04 311.04 0 0 0 171.76-277.76z"  horiz-adv-x="1024" />

    
    <glyph glyph-name="xiyu" unicode="&#59065;" d="M512 65.01542436c-16.96777203 0-30.40059155-14.13981003-30.40059155-30.40059156s13.43281952-30.40059155 30.40059155-30.40059155c16.26078154 0 30.40059155 13.43281952 30.40059155 30.40059155v0.7069905c0 16.96777203-14.13981003 29.69360106-30.40059155 29.69360106zM384.74170975 195.10167663000004c-16.26078154 3.5349525-32.52156306-7.77689552-35.34952507-24.03767706-3.5349525-16.26078154 7.06990501-32.52156306 23.33068654-35.34952507 2.1209715 0 4.24194301-0.7069905 5.65592401-0.7069905 14.13981003 0 26.86563906 9.89786702 29.69360106 24.03767706v0.70699049c3.5349525 16.26078154-7.06990501 31.81457257-23.33068654 35.34952508zM403.12346279 314.58307134999995c-16.26078154 3.5349525-32.52156306-7.77689552-35.34952507-24.03767704-3.5349525-16.26078154 7.06990501-32.52156306 24.03767703-35.34952506 1.41398101-0.7069905 3.5349525-0.7069905 5.65592402-0.70699051 14.13981003 0 26.86563906 9.89786702 29.69360106 24.03767705v0.70699049c3.5349525 16.26078154-7.77689552 32.52156306-24.03767704 35.34952507zM363.5319947 75.62028188c-16.26078154 2.1209715-31.10758207-10.60485751-33.22855356-26.86563904-1.41398101-16.26078154 10.60485751-31.10758207 26.86563905-33.22855357h2.82796201c15.55379103 0 28.27962006 11.31184801 29.69360105 26.86563905v0.7069905c2.1209715 16.96777203-9.89786702 31.10758207-26.15864855 32.52156306zM824.48980161 339.3277389H199.51019839v17.67476254c0 109.58352772 89.08080318 198.6643309 198.66433088 198.66433089h32.52156307V780.48981178h162.60781532v-224.82297945h33.22855357c109.58352772 0 198.6643309-89.08080318 198.6643309-198.66433089v-17.67476254z m-588.92308766 35.34952507H787.72629555c-8.48388603 81.30390766-78.47594565 145.6400433-161.90082482 145.64004329h-68.57807864V745.14028671h-91.90876519v-224.82297945h-67.87108813c-83.42487916 0-152.7099483-63.62914512-161.90082482-145.64004329zM305.55877359 313.16909036000004c-15.55379103 6.36291451-33.22855357-1.41398101-38.88447758-16.96777205-6.36291451-15.55379103 1.41398101-32.52156306 16.96777203-38.88447757 3.5349525-1.41398101 7.77689552-2.1209715 11.31184803-2.12097149 12.01883853 0 23.33068654 7.06990501 28.27962006 19.08874353v0.70699051c4.9489335 14.84680053-2.1209715 31.81457257-17.67476254 38.17748707zM222.13389443 85.51814890000003c-15.55379103 6.36291451-33.22855357-1.41398101-38.88447758-16.96777203-6.36291451-15.55379103 1.41398101-33.22855357 16.96777204-38.88447757 3.5349525-1.41398101 7.77689552-2.1209715 11.31184802-2.12097151 12.01883853 0 23.33068654 7.06990501 28.27962005 19.08874353v0.7069905c5.65592402 14.84680053-2.1209715 32.52156306-17.67476253 38.17748708zM261.018372 200.05061012c-16.26078154 4.9489335-32.52156306-4.24194301-37.47049657-20.50272453-4.9489335-16.26078154 4.24194301-32.52156306 19.79573403-37.47049658 2.82796201-0.7069905 5.65592402-1.41398101 8.48388602-1.41398099 12.72582902 0 25.45165805 8.48388603 28.98661057 21.20971503v0.7069905c5.65592402 16.26078154-3.5349525 33.22855357-19.79573405 37.47049657zM512 315.29006185000003c-16.96777203 0-30.40059155-13.43281952-30.40059155-30.40059156s13.43281952-30.40059155 30.40059155-30.40059155c16.26078154 0 30.40059155 13.43281952 30.40059155 30.40059155s-14.13981003 30.40059155-30.40059155 30.40059156zM799.74513408 179.54788558999996c-4.9489335 16.26078154-21.20971504 25.45165805-37.47049659 20.50272453-15.55379103-4.9489335-24.74466755-21.91670555-19.79573402-37.47049657 3.5349525-12.72582902 16.26078154-21.20971504 28.98661054-21.20971503 2.82796201 0 5.65592402 0.7069905 8.48388602 1.41398099 15.55379103 4.24194301 24.74466755 21.20971504 19.79573405 36.76350608zM758.03269449 296.20131831000003c-6.36291451 16.26078154-24.03767705 23.33068654-39.59146808 16.96777205-15.55379103-6.36291451-22.62369604-24.03767705-16.26078154-39.59146808 4.9489335-12.01883853 16.26078154-19.08874354 28.27962007-19.08874354 3.5349525 0 7.06990501 0.7069905 11.31184801 2.1209715 14.84680053 6.36291451 21.91670555 24.03767705 16.26078154 39.59146807zM840.75058315 68.55037687000004c-6.36291451 16.26078154-24.03767705 23.33068654-39.59146808 16.96777203-15.55379103-6.36291451-22.62369604-24.03767705-16.26078152-39.59146807 4.9489335-12.01883853 16.26078154-19.08874354 28.27962005-19.08874354 3.5349525 0 7.77689552 0.7069905 11.31184801 2.12097149 14.84680053 6.36291451 22.62369604 24.03767705 16.26078154 39.59146809zM651.27712878 135.71447450000005c16.26078154 3.5349525 26.86563906 19.08874354 23.33068654 35.34952507v0.70699051c-2.82796201 16.26078154-19.08874354 26.86563906-35.34952507 23.33068655s-26.86563906-19.08874354-23.33068654-35.34952508c2.82796201-14.13981003 15.55379103-24.03767705 29.69360106-24.03767705 1.41398101-0.7069905 3.5349525-0.7069905 5.65592401 0zM660.4680053 75.62028188c-16.96777203-1.41398101-28.98661055-16.96777203-26.86563906-33.22855356 1.41398101-15.55379103 14.84680053-26.86563906 29.69360105-26.86563905h2.82796202c16.26078154 1.41398101 28.27962006 16.26078154 26.86563905 33.22855357v0.70699049c-0.7069905 16.26078154-15.55379103 28.27962006-32.52156306 26.15864855zM632.18838525 255.19586925c16.26078154 3.5349525 26.86563906 19.08874354 23.33068653 35.34952506v0.7069905c-2.82796201 16.26078154-19.08874354 26.86563906-35.34952506 23.33068654-16.26078154-2.82796201-26.86563906-19.08874354-23.33068655-35.34952507 2.82796201-14.13981003 15.55379103-24.03767705 29.69360106-24.03767703 2.1209715-0.7069905 4.24194301 0 5.65592402 0zM512 190.15274309999995c-16.96777203 0-30.40059155-13.43281952-30.40059155-30.40059155 0-16.26078154 13.43281952-30.40059155 30.40059155-30.40059156 16.26078154 0 30.40059155 13.43281952 30.40059155 30.40059156v0.70699051c0 16.96777203-14.13981003 29.69360106-30.40059155 29.69360104z"  horiz-adv-x="1024" />

    
    <glyph glyph-name="aixin" unicode="&#59061;" d="M735.96928 860.03712c-88.12544 0-170.04544-44.19584-223.96928-117.08416-53.88288 72.9088-135.80288 117.08416-223.9488 117.08416C129.2288 860.03712 0 718.76608 0 545.09568c0-103.60832 46.2848-176.27136 83.47648-234.68032 108.1344-169.61536 379.98592-380.70272 391.49568-389.59104a60.35456 60.35456 0 0 1 37.00736-12.86144 60.2112 60.2112 0 0 1 37.00736 12.86144c11.53024 8.9088 283.40224 219.97568 391.49568 389.59104C977.69472 368.82432 1024 441.50784 1024 545.09568c0 173.6704-129.2288 314.94144-288.03072 314.94144z m151.92064-509.5424C784.97792 188.98944 512-21.95456 512-21.95456s-272.95744 210.944-375.88992 372.44928c-37.96992 59.61728-71.96672 116.30592-71.96672 194.60096 0 135.20896 100.2496 244.85888 223.92832 244.85888 91.40224 0 169.8816-59.96544 204.6976-145.8176v0.43008h0.1024c2.58048-8.94976 10.15808-15.48288 19.1488-15.48288 9.0112 0 16.60928 6.53312 19.18976 15.48288h0.26624c34.89792 85.6064 113.2544 145.408 204.51328 145.408 123.65824 0 223.9488-109.64992 223.9488-244.85888-0.06144-78.31552-34.05824-135.00416-72.04864-194.62144z m0 0"  horiz-adv-x="1024" />

    
    <glyph glyph-name="aite" unicode="&#59159;" d="M514.1725891 58.111604690000036c-180.32491228 0-325.88839531 145.56348303-325.88839531 325.88839531S333.84767743 709.88839531 512 709.88839531c86.90357187 0 167.28937646-34.76142863 228.12187672-95.5939295 60.83250025-60.83250025 93.42133979-143.39089394 93.42133978-230.29446581v-2.1725891c0-47.79696443-13.03553581-95.5939295-36.93401772-128.18276902-23.89848252-34.76142863-56.48732206-54.31473234-91.24875069-54.31473236h-2.17258972c-34.76142863 0-63.00508997 21.72589282-80.38580397 60.83250027-28.24366072-39.10660744-69.52285787-60.83250025-112.9746435-60.83250027h-2.17258971c-39.10660744 0-76.04062578 19.55330372-102.11169678 49.96955355-26.07107163 32.58883953-41.27919653 73.86803606-41.27919716 117.31982231 2.1725891 91.24875068 67.35026816 162.94419766 147.73607275 162.94419765h2.1725891c34.76142863 0 60.83250025-15.20812491 91.24875069-39.10660744v15.20812553c0 17.38071462 13.03553581 17.38071462 17.38071461 17.38071401h10.86294672c6.5177679 0 21.72589282 0 21.72589282-17.38071401v-132.52794783c0-71.69544697 19.55330372-119.49241141 49.96955415-119.49241141 34.76142863 0 73.86803606 54.31473234 73.86803606 132.52794722 0 149.90866184-121.66500113 271.57366297-271.57366296 271.57366295S242.59892675 533.9086618399999 242.59892675 384s121.66500113-271.57366297 271.57366235-271.57366297c30.41625044 0 60.83250025 4.34517881 91.24875069 15.20812554 10.86294671 4.34517881 13.03553581 6.5177679 13.0355358 6.5177679 4.34517881 2.1725891 6.5177679 2.1725891 10.86294672 2.1725891 10.86294671 0 19.55330372-6.5177679 23.89848252-13.03553582l2.17258911-4.34517882c2.1725891-6.5177679 4.34517881-13.03553581 2.17258909-19.5533037-2.1725891-6.5177679-6.5177679-10.86294671-13.03553581-13.03553582 0 0-8.69035701-4.34517881-23.89848191-8.690357-34.76142863-13.03553581-69.52285787-19.55330372-106.45687621-19.55330372z m0 421.48232481C464.20303557 479.5939295 425.09642813 427.45178625 425.09642813 362.27410718s41.27919653-115.14723321 89.07616097-115.14723321 89.0761616 52.14214326 89.07616158 115.14723321-39.10660744 117.31982231-89.07616158 117.31982232z"  horiz-adv-x="1024" />

    
    <glyph glyph-name="location" unicode="&#58882;" d="M512.103132 575.879021a106.221743 106.221743 0 1 0-75.507022-31.354611A106.221743 106.221743 0 0 0 512.103132 575.879021m0 63.989002a170.850635 170.850635 0 1 1 120.939214-49.911422A169.570855 169.570855 0 0 1 512.103132 639.868023zM805.172761 771.685367a407.609942 407.609942 0 0 1-586.139257 0 431.285873 431.285873 0 0 1 0-599.576948L512.103132-128l293.069629 300.108419a431.285873 431.285873 0 0 1 0 599.576948z m-44.152411-557.344207l-248.917218-255.956007-248.917217 255.956007a365.377201 365.377201 0 0 0 0 508.712565 346.82039 346.82039 0 0 0 497.834435 0 365.377201 365.377201 0 0 0 0-508.712565z"  horiz-adv-x="1024" />

    
    <glyph glyph-name="hao" unicode="&#58990;" d="M984.191664 434.391562h-428.184484v415.402859c0 19.17244-19.17244 44.735692-44.735693 44.735692-25.563253 0-44.735692-25.563253-44.735692-51.126506v-415.402858H51.132936c-25.563253 6.390813-51.126506-19.17244-51.126505-44.735693s25.563253-44.735692 44.735692-44.735692h415.402859v-415.402858c6.390813-25.563253 25.563253-51.126506 51.126505-51.126506s44.735692 25.563253 44.735693 44.735692v421.793672h421.793671c25.563253 0 44.735692 25.563253 44.735693 44.735692s-12.781626 51.126506-38.34488 51.126506z"  horiz-adv-x="1027" />

    
    <glyph glyph-name="wifi" unicode="&#59115;" d="M838.14016 488.42752c-7.70304 0-15.40352 2.87488-21.28 8.62208-80.30464 78.55488-187.25888 121.8176-301.15968 121.8176-113.9008 0-220.85376-43.26144-301.15712-121.8176-11.75424-11.49568-30.8096-11.49568-42.56128 0a28.98944 28.98944 0 0 0 0 41.63456c46.32192 45.31328 100.40832 80.40576 160.7552 104.30208 58.24896 23.0656 119.808 34.76096 182.96448 34.76096s124.7168-11.69536 182.96576-34.76096c60.34688-23.89632 114.432-58.98752 160.7552-104.3008a28.98944 28.98944 0 0 0 0-41.63456c-5.87776-5.74848-13.5808-8.62336-21.28256-8.62336zM767.78624 374.37056c-7.70304-0.00128-15.40352 2.8736-21.28128 8.62208-61.54112 60.20224-143.51104 93.35808-230.80576 93.35808-87.296 0-169.26464-33.15456-230.80704-93.35808-11.75424-11.49696-30.80832-11.49696-42.56256 0a28.98944 28.98944 0 0 0 0 41.63456c72.91264 71.32416 169.9968 110.60352 273.3696 110.60352 103.37408 0 200.45824-39.27936 273.36832-110.60352 11.75296-11.49696 11.75296-30.13632 0-41.63456-5.87648-5.7472-13.57824-8.6208-21.28128-8.62208zM333.96096 273.10976c-7.70176 0-15.4048 2.8736-21.28 8.62208a28.98816 28.98816 0 0 0-0.00128 41.63456c54.22848 53.04576 126.3296 82.26176 203.01952 82.26176 76.6912 0 148.79104-29.21472 203.01952-82.26176a28.98944 28.98944 0 0 0 0-41.63456c-11.75424-11.49696-30.80832-11.49696-42.56256 0-42.85952 41.9264-99.84512 65.01632-160.45696 65.01632-60.61312 0-117.59872-23.08992-160.45696-65.01632-5.87648-5.74848-13.57824-8.62208-21.28128-8.62208zM573.568 104.81792c-31.90784-31.90656-83.82592-31.90656-115.73248 0-31.90784 31.90784-31.90784 83.8272 0 115.73376 31.90656 31.90912 83.82464 31.90912 115.73248 0 31.904-31.90656 31.904-83.8272 0-115.73376z"  horiz-adv-x="1024" />

    
    <glyph glyph-name="dingweiweizhi-copy" unicode="&#58883;" d="M512 966.54222222C247.04568889 966.54222222 32.25941333 750.52145778 32.25941333 483.92305778c0-133.23036445 53.73041778-253.85073778 140.49507556-341.23207111L512-198.54222221999999l339.24437333 341.23320889a482.55089778 482.55089778 0 0 1 140.49621334 341.23207111C991.74058667 750.52145778 776.95317333 966.54222222 512 966.54222222z m0-696.99470222a213.82712889 213.82712889 0 0 0-213.27985778 214.51320889A213.75886222 213.75886222 0 0 0 512 698.43626667a213.82712889 213.82712889 0 0 0 213.27872-214.51320889A213.75886222 213.75886222 0 0 0 512 269.47925333z"  horiz-adv-x="1024" />

    
    <glyph glyph-name="dianchuifeng" unicode="&#58943;" d="M902.5 386.2c-32-32.8-42.8-49.5-91.9-66.2v-277.3c0-23.7-20.9-42.7-42.7-42.7l-92.1 0.1c-22.4 0-35.9 19.2-35.9 42.6v256c-77.1 2-128.8 19.1-170.7 64H298.7c-37.8 0-64.1 18.9-64.1 49.7v3.4L192 384c-27 0-42.7 19.6-42.7 43.7V639c0 24.1 15.6 43.6 42.7 43.6l43.7-32.4c4.8 27.8 28.9 52.8 63 53.8h170.7c58.2 39.4 127.6 64 213.3 64 193 0 277.3-103 277.3-234.7 0-47.3-19.8-108.6-57.5-147.1zM198.7 618.5c-3.7 0-6.9-2.7-6.9-5.8v-158.8c0-3.1 3.2-5.8 6.9-5.8l35.9 19.4V599.4l-35.9 19.1z m484 106.8c-78.4 0-141.1-24.1-192-64h-192c-7.4 0-21.2-0.6-21.2-19.6l-0.2-215c0-8.1 2.5-21.3 21.3-21.3h192c53-39.4 74.7-64 149.3-64 2.6 0 19.9 0.3 21.3 0h21.3v-298.7H768V341.3l42.7 21.3c74.9 30.1 106.7 97.8 106.7 170.7-0.1 95.5-49.1 192-234.7 192z m96-191.9H629.5c-17.8 0-32.2 17.9-32.2 40v26.4c0 22.1 14.4 40 32.2 40h149.3c17.8 0 32.2-17.9 32.2-40v-26.4c-0.3-22.1-14.7-40-32.3-40zM767.8 594c0 1.7-1.9 3.2-3.9 3.2H643.7c-2.1 0-3.9-1.5-3.9-3.2v-14.6c0-1.7 1.9-3.2 3.9-3.2h120.2c2.1 0 3.9 1.5 3.9 3.2V594zM85.3 426.7c-11.8 0-21.3 9.6-21.3 21.3 0 11.8 9.6 21.3 21.3 21.3s21.3-9.6 21.3-21.3c0.1-11.8-9.5-21.3-21.3-21.3z m0 85.3c-11.8 0-21.3 9.6-21.3 21.3 0 11.8 9.6 21.3 21.3 21.3s21.3-9.6 21.3-21.3c0.1-11.8-9.5-21.3-21.3-21.3z m0 85.3c-11.8 0-21.3 9.6-21.3 21.3 0 11.8 9.6 21.3 21.3 21.3s21.3-9.6 21.3-21.3c0.1-11.7-9.5-21.3-21.3-21.3z"  horiz-adv-x="1024" />

    
    <glyph glyph-name="ditu" unicode="&#58898;" d="M829.339 200.198L923.5-34.638 718.16 16.98 685.601 234.8zM749.132 400.207l61.715-153.948-131.713 31.764-22.803 152.701zM639.654 239.451l33.581-224.058-156.785-43.678V204.283zM641.583 594.089c0-33.354-14.521-89.51-37.551-150.885-38.119-101.309-99.38-216.912-157.012-268.417-19.173-17.13-38.005-27.228-55.363-27.228-23.71 0-51.278 21.556-79.073 55.477-17.471 21.215-35.055 47.194-51.959 75.896-64.211 108.683-118.893 254.803-118.893 315.157 0 123.317 112.086 223.719 249.925 223.719 137.84 0 249.926-100.402 249.926-223.719zM510.21 349.269c49.577 97.338 81.569 193.429 81.569 244.82 0 98.813-89.737 179.134-200.122 179.134-110.384 0-200.122-80.321-200.122-179.134 0-48.442 34.035-146.688 84.746-244.479 61.602-118.666 106.073-157.012 115.376-157.579 19.06-0.001 65.914 54 118.553 157.238zM591.779 594.089c0-51.392-31.992-147.482-81.569-244.82-52.64-103.237-99.493-157.238-118.553-157.238-9.303 0.567-53.774 38.913-115.376 157.579-50.711 97.792-84.746 196.037-84.746 244.479 0 98.813 89.737 179.134 200.122 179.134 110.385 0 200.122-80.321 200.122-179.134z m-47.307-3.744c0 75.442-68.522 136.818-152.814 136.818-84.292 0-152.814-61.375-152.814-136.818 0-75.443 68.522-136.932 152.814-136.932 84.292 0.001 152.814 61.489 152.814 136.932zM504.878 212.224c8.168 11.118 16.336 23.257 24.619 36.53l1.134 1.815 102.897 29.27-20.421 136.591 0.567 1.248c2.609 6.466 4.992 12.82 7.374 19.173 4.879 12.819 9.416 25.412 13.5 37.778l1.815 5.445 138.066-45.379c6.239-2.042 11.117-6.466 13.387-12.025l192.521-480.337c2.836-7.147 1.134-14.975-4.651-20.534-5.673-5.332-14.521-7.601-22.463-5.672l-255.03 64.098-188.437-52.413-0.34-0.34c-3.176-2.042-7.147-3.177-11.798-3.517-1.361-0.341-5.332-0.454-8.282 0.113-3.857 0.227-7.828 1.361-11.004 3.403l-0.34 0.34-188.437 52.413-255.03-64.098a26.402 26.402 0 0 0-6.013-0.681c-6.24 0-12.252 2.382-16.45 6.353-5.786 5.56-7.601 13.387-4.651 20.534l177.772 443.354 5.786-12.706c6.013-13.047 12.479-26.32 19.059-39.479l1.021-2.042-35.169-87.582 69.543 24.845 2.496-4.197a658.209 658.209 0 0 1 16.223-25.753l3.404-5.332-111.859-40.16-91.439-227.918 205.227 51.618 26.434 177.092 8.508-10.097c9.53-11.118 18.719-20.761 27.908-28.589l1.475-1.929-22.009-138.065 153.949-43.678V172.177l4.311 1.476c10.324 10.777 23.71 23.483 34.375 38.005l0.452 0.566z m134.776 27.227L516.45 204.283v-232.568l156.785 43.678-33.581 224.058zM923.5-34.638l-94.161 234.836L685.601 234.8l32.56-217.819L923.5-34.638zM810.847 246.259l-61.715 153.948-92.801 30.517 22.803-152.701 131.713-31.764zM391.658 727.163c84.292 0 152.814-61.375 152.814-136.818 0-75.443-68.522-136.932-152.814-136.932-84.292 0-152.814 61.489-152.814 136.932 0 75.443 68.522 136.818 152.814 136.818zM499.32 590.345c0 53.207-48.215 96.43-107.662 96.43-59.333 0-107.662-43.224-107.662-96.43 0-53.207 48.329-96.431 107.662-96.431 59.446 0.001 107.662 43.224 107.662 96.431zM447.021 174.786c57.631 51.506 118.893 167.108 157.012 268.417l17.017-6.353c-2.382-6.353-4.765-12.707-7.374-19.173l-0.567-1.248 20.421-136.591-102.897-29.27-1.134-1.815c-8.282-13.273-16.45-25.412-24.619-36.53l-0.454-0.566c-10.664-14.521-24.051-27.228-34.375-38.005l-4.311-1.476-18.719 2.61zM391.658 686.775c59.447 0 107.662-43.224 107.662-96.43 0-53.207-48.215-96.431-107.662-96.431-59.333 0-107.662 43.224-107.662 96.431s48.329 96.43 107.662 96.43zM295.908 194.072l16.677 8.963c27.794-33.921 55.362-55.477 79.073-55.477 17.358 0 36.19 10.098 55.363 27.228l18.719-2.609v-200.462l-153.949 43.678L333.8 153.458l-1.475 1.929c-9.189 7.828-18.378 17.471-27.908 28.589l-8.509 10.096zM260.626 278.932c16.904-28.702 34.488-54.682 51.959-75.896l-16.677-8.963-26.433-177.093-205.227-51.618 91.439 227.916 111.859 40.16-3.404 5.332a659.398 659.398 0 0 0-16.223 25.753l-2.496 4.197 15.203 10.212zM863.373 234.233l94.161-234.837-205.34 51.619-32.559 217.819zM783.166 434.241l61.715-153.948-131.712 31.765-22.804 152.7zM673.688 273.485l33.582-224.058-156.786-43.678V238.317zM675.617 628.123c0-33.354-14.521-89.51-37.551-150.885-38.119-101.309-99.381-216.912-157.012-268.417-19.173-17.13-38.005-27.228-55.362-27.228-23.711 0-51.278 21.556-79.073 55.477-17.471 21.215-35.055 47.194-51.959 75.896-64.211 108.683-118.893 254.803-118.893 315.157 0 123.317 112.086 223.719 249.925 223.719S675.617 751.44 675.617 628.123z m-131.372-244.82c49.576 97.338 81.568 193.428 81.568 244.82 0 98.813-89.736 179.134-200.121 179.134S225.57 726.936 225.57 628.123c0-48.442 34.034-146.688 84.745-244.479 61.602-118.666 106.074-157.012 115.376-157.579 19.06-0.001 65.914 54 118.554 157.238zM625.813 628.123c0-51.392-31.992-147.482-81.568-244.82-52.64-103.238-99.494-157.239-118.553-157.239-9.303 0.567-53.774 38.913-115.376 157.579-50.711 97.792-84.745 196.038-84.745 244.479 0 98.813 89.737 179.134 200.122 179.134s200.12-80.32 200.12-179.133z m-47.307-3.744c0 75.442-68.522 136.818-152.813 136.818-84.292 0-152.814-61.375-152.814-136.818 0-75.443 68.522-136.931 152.814-136.931 84.291 0 152.813 61.489 152.813 136.931zM550.484 238.317v-232.568l156.785 43.678-33.581 224.059-123.204-35.169z m-46.4-30.63c10.324 10.777 23.71 23.483 34.375 38.005l0.454 0.567c8.168 11.117 16.336 23.257 24.618 36.529l1.135 1.815 102.896 29.27-20.421 136.591 0.567 1.248c2.609 6.467 4.992 12.82 7.374 19.173 4.879 12.819 9.416 25.412 13.501 37.778l1.814 5.446 138.066-45.379c6.239-2.042 11.117-6.466 13.387-12.025l192.521-480.337c2.836-7.146 1.135-14.975-4.651-20.534-5.673-5.332-14.521-7.601-22.463-5.672l-255.03 64.098-188.437-52.413-0.34-0.34c-3.177-2.042-7.147-3.177-11.799-3.517-1.361-0.341-5.332-0.454-8.282 0.113-3.856 0.227-7.827 1.361-11.004 3.403a109.47 109.47 0 0 1-0.341 0.34l-188.436 52.413L68.559-49.84a26.402 26.402 0 0 0-6.013-0.681c-6.24 0-12.252 2.382-16.45 6.353-5.786 5.56-7.601 13.388-4.651 20.534L219.217 419.72l5.786-12.706c6.013-13.046 12.479-26.32 19.059-39.479l1.021-2.042-35.168-87.582 69.543 24.845 2.496-4.197a659.398 659.398 0 0 1 16.223-25.753l3.403-5.332-111.859-40.16-91.439-227.918 205.227 51.618 26.433 177.092 8.509-10.097c9.529-11.118 18.719-20.761 27.908-28.589l1.475-1.929-22.009-138.065 153.948-43.678V206.211l4.311 1.476z m453.45-208.291l-94.161 234.837-143.738 34.601 32.56-217.819 205.339-51.619zM844.881 280.293l-61.715 153.948-92.801 30.517 22.804-152.701 131.712-31.764zM425.692 761.197c84.292 0 152.813-61.375 152.813-136.818 0-75.443-68.522-136.931-152.813-136.931-84.292 0-152.814 61.488-152.814 136.931 0 75.443 68.522 136.818 152.814 136.818z m107.662-136.818c0 53.207-48.215 96.43-107.661 96.43-59.333 0-107.662-43.223-107.662-96.43s48.329-96.431 107.662-96.431c59.446 0.001 107.661 43.224 107.661 96.431zM538.459 245.691c-10.664-14.521-24.051-27.228-34.375-38.005l-4.311-1.476-18.719 2.609c57.631 51.506 118.893 167.108 157.012 268.417l17.017-6.353c-2.382-6.353-4.765-12.706-7.374-19.173l-0.567-1.248 20.421-136.591-102.896-29.27-1.135-1.815c-8.282-13.272-16.45-25.412-24.618-36.529l-0.455-0.566zM425.692 720.81c59.446 0 107.661-43.223 107.661-96.43s-48.215-96.431-107.661-96.431c-59.333 0-107.662 43.224-107.662 96.431s48.329 96.43 107.662 96.43zM346.619 237.069c27.795-33.921 55.362-55.477 79.073-55.477 17.357 0 36.189 10.098 55.362 27.228l18.719-2.609v-200.462l-153.948 43.678 22.009 138.065-1.475 1.929c-9.189 7.828-18.378 17.471-27.908 28.589l-8.509 10.097 16.677 8.962zM298.177 272.805a659.398 659.398 0 0 0-16.223 25.753l-2.496 4.197 15.202 10.211c16.904-28.702 34.488-54.682 51.959-75.896l-16.677-8.963-26.433-177.092-205.227-51.619 91.439 227.916 111.859 40.16-3.403 5.333z"  horiz-adv-x="1024" />

    
    <glyph glyph-name="tubiao_gengduo" unicode="&#58884;" d="M96.990544 478.808912C43.425457 478.808912 0 436.36094 0 383.998229c0-52.359169 43.425457-94.805371 96.990544-94.80537 53.566858 0 96.992315 42.446201 96.992315 94.80537 0 52.362711-43.425457 94.810683-96.992315 94.810683z m415.007685 0c-53.561546 0-96.987003-42.446201-96.987002-94.810683 0-52.359169 43.420144-94.805371 96.987002-94.80537 53.565087 0 96.990544 42.446201 96.990544 94.80537 0 52.362711-43.425457 94.810683-96.990544 94.810683z m415.011227 0c-53.566858 0-96.992315-42.446201-96.992315-94.810683 0-52.359169 43.425457-94.805371 96.992315-94.80537 53.566858 0 96.990544 42.446201 96.990544 94.80537 0 52.362711-43.425457 94.810683-96.990544 94.810683z m0 0"  horiz-adv-x="1024" />

    
    <glyph glyph-name="tubiao_wuxing-" unicode="&#58891;" d="M255.668859-110.03341c-19.122926 0-37.411802 6.001259-52.886869 17.353891-31.961264 23.569418-45.440633 51.301998-40.142383 82.487649 0.070832 0.412598 0.146977 0.825195 0.230204 1.236023l50.287327 247.289409a8.650384 8.650384 0 0 1-1.620287 6.254484L30.096606 389.071586a39.025006 39.025006 0 0 0-3.036931 2.688083c-24.479612 24.05816-33.174265 59.410516-22.687557 92.257181 10.566395 32.818333 38.003251 56.308065 71.728237 61.531941l238.509757 42.375369c0.380723 0.067291 0.763217 0.129269 1.142169 0.185934 2.395899 0.35239 4.504929 1.91247 5.678972 4.189725l109.843049 234.668881 0.240829 0.50645c14.920805 30.712846 46.520824 50.55826 80.506119 50.55826 34.410287 0 65.241777-19.337193 80.461848-50.466178 0.184164-0.375411 0.361244-0.754363 0.533012-1.135086l105.357599-234.282845c1.18821-2.195798 3.263594-3.697441 5.615223-4.044519 0.338224-0.049583 0.678218-0.104478 1.016443-0.162914l242.851771-42.378911c33.308846-5.121169 61.434546-29.218286 71.760111-61.540794 10.484938-32.705002 1.839867-68.04142-22.572454-92.181037-0.773842-0.766759-1.577787-1.49633-2.406525-2.188716l-172.589761-149.725124c-1.60612-1.896532-2.298505-4.467742-1.866428-7.021242l41.196013-243.113851c5.89324-35.262045-4.501387-62.959209-30.877531-82.411504-15.455588-11.386278-33.749777-17.401703-52.922285-17.410558a89.452226 89.452226 0 0 0-42.256726 10.662019l-220.042029 120.062365a7.299259 7.299259 0 0 1-6.387294 0.092082l-210.359266-119.807369c-0.315203-0.178851-0.630407-0.35239-0.947381-0.522388a89.377852 89.377852 0 0 0-41.916731-10.49025z m-15.954955 88.262245c1.069566-1.356437 3.594735-4.060456 9.197563-8.189974a11.395132 11.395132 0 0 1 6.755622-2.217048c1.733618 0 3.401717 0.393119 4.965337 1.168731l210.403537 119.833932c0.316974 0.180622 0.633948 0.354161 0.954464 0.525929a85.322709 85.322709 0 0 0 40.000719 9.994425 85.329792 85.329792 0 0 0 40.33186-10.175047l220.06682-120.074761c3.686816-1.923094 8.487469-1.570704 11.915749 0.954464 0.366557 0.270933 0.66051 0.504679 0.890715 0.699468 0.017708 1.039463-0.067291 2.962557-0.594991 6.119903l-41.183617 243.032393c-4.712113 27.824663 4.427013 56.226608 24.442424 75.978169 0.59322 0.584366 1.204148 1.151023 1.832784 1.696432l173.214855 150.26699c2.932453 3.348593 3.940042 8.13685 2.557043 12.448761-1.416644 4.434096-5.142418 7.688836-9.503912 8.328097a41.509445 41.509445 0 0 0-1.046546 0.168226l-242.869479 42.382453c-27.649353 4.272953-51.475537 21.869445-63.814508 47.168939a41.190701 41.190701 0 0 0-0.511763 1.097899L522.352127 793.739539c-2.107258 3.982541-6.029592 6.438648-10.330877 6.438648-4.388055 0-8.354659-2.50746-10.394627-6.557291l-109.869611-234.725546-0.269162-0.564887c-12.333658-25.278245-36.126198-42.862341-63.740134-47.145919l-238.507986-42.375369c-0.37364-0.06552-0.749051-0.127498-1.122691-0.182393-4.474825-0.66051-8.154558-3.87098-9.606618-8.375909-1.312167-4.110039-0.440931-8.699966 2.229444-11.979497l181.585451-144.603955a39.140108 39.140108 0 0 0 3.091826-2.742978c20.020724-19.753332 29.15985-48.157048 24.445966-75.978169-0.069061-0.419681-0.146977-0.837591-0.231975-1.25373L239.713904-21.771165z"  horiz-adv-x="1024" />

    
    <glyph glyph-name="sousuo" unicode="&#58886;" d="M1000.698536-65.682131L790.804727 144.211678c71.710707 79.297231 115.604163 184.244135 115.604163 299.306403C906.40889 689.53819 706.269183 889.858529 460.068442 889.858529S13.727994 689.718822 13.727994 443.698712s200.139707-446.340448 446.340448-446.340448c107.295114 0 205.739284 38.113247 282.868937 101.334274l210.977597-210.977597c12.824837-12.824837 33.778091-12.824837 46.78356 0 12.824837 12.824837 12.824837 33.778091 0 46.602928z m-922.304463 509.380843c0 210.435703 171.238666 381.674369 381.674369 381.67437S841.742812 654.134415 841.742812 443.698712s-171.238666-381.674369-381.67437-381.674369S78.394073 233.263009 78.394073 443.698712z"  horiz-adv-x="1024" />

    
    <glyph glyph-name="saoyisao" unicode="&#58887;" d="M1010.272006 539.794673h-65.388605v159.858881c0 63.58229-51.841242 115.423531-115.423532 115.423532h-159.858881V880.465691h159.858881c99.708591 0 180.812136-81.103546 180.812137-180.812137v-159.858881zM355.844064-114.633269h-159.858881c-99.708591 0-180.812136 81.103546-180.812137 180.812137v160.039513h65.388605v-160.039513c0-63.58229 51.841242-115.423531 115.423532-115.423532H355.844064v-65.388605zM80.561651 539.794673H15.173046v159.858881C15.173046 799.362145 96.276592 880.465691 195.985183 880.465691H355.844064v-65.388605h-159.858881c-63.58229 0-115.423531-51.841242-115.423532-115.423532v-159.858881zM829.459869-114.633269h-159.858881v65.388605h159.858881c63.58229 0 115.423531 51.841242 115.423532 115.423532v160.039513h65.388605v-160.039513c0-99.708591-81.103546-180.812136-180.812137-180.812137zM7.044629 416.242724h1011.175163v-65.388605H7.044629z"  horiz-adv-x="1024" />

    
    <glyph glyph-name="pinglun" unicode="&#58893;" d="M513.354736-73.810549c-31.429882 0-61.775975 15.534309-83.090492 42.448404l-59.066502 74.962074c-25.288411 32.152408-83.451755 60.330923-124.274475 60.330923H131.680367c-69.181866 0-125.358264 56.176398-125.358264 125.358264V679.784089c0 69.181866 56.176398 125.358264 125.358264 125.358264h763.52937c69.181866 0 125.358264-56.176398 125.358264-125.358264V229.469748c0-69.181866-56.176398-125.358264-125.358264-125.358264h-115.423531c-40.82272 0-98.986065-28.178515-124.274476-60.330923l-59.066502-74.962074c-21.314518-27.094726-51.66061-42.629035-83.090492-42.629036zM131.680367 739.753748c-33.055565 0-59.96966-26.914094-59.96966-59.969659V229.469748c0-33.055565 26.914094-59.96966 59.96966-59.96966h115.423531c60.872817 0 138.00247-37.390721 175.754454-85.25807l59.066502-74.962074c8.850944-11.379785 20.230729-17.521256 31.610514-17.521256 11.560416 0 22.75957 6.322103 31.610513 17.521256l59.066502 74.962074c37.571353 47.867349 114.881637 85.25807 175.754454 85.25807h115.423532c33.055565 0 59.96966 26.914094 59.969659 59.96966V679.784089c0 33.055565-26.914094 59.96966-59.969659 59.969659H131.680367z"  horiz-adv-x="1024" />

    
    <glyph glyph-name="shoucang" unicode="&#58895;" d="M790.804727-97.47327600000006c-12.282942 0-25.469042 3.431999-38.655142 10.476628l-197.249603 103.682483c-22.037044 11.560416-62.317869 11.560416-84.354912 0l-197.249603-103.682483c-26.552831-13.908626-52.563768-13.908626-71.710708 0-19.146939 13.908626-27.275357 38.835774-22.217675 68.278708l37.751985 219.64791c4.154525 24.565885-8.128418 62.859764-26.010937 80.200388l-159.497619 155.523726C9.934733 457.607338 1.806315 482.353854 9.212207 504.932792c7.22526 22.398307 28.539778 37.751984 58.163344 42.087141l220.551067 31.971776c24.746516 3.61263 57.260187 27.275357 68.278709 49.673664l98.624802 199.778444c13.1861 26.914094 34.319986 42.267772 57.982713 42.267772 23.662727 0 44.796613-15.353678 57.982713-42.267772L669.239725 628.665373c11.018522-22.398307 43.532193-46.061034 68.278709-49.673664l220.551067-31.971776c29.623567-4.335156 50.757453-19.688834 58.163344-42.087141 7.22526-22.398307-0.722526-47.325454-22.217675-68.278708L834.517552 281.130358c-17.882519-17.340624-30.346093-55.634503-26.010937-80.200388l37.751984-219.64791c5.057682-29.442935-3.070736-54.370083-22.217675-68.278708-9.754101-6.863997-21.133886-10.476627-33.236197-10.476628z m-278.172517 188.39866c26.010937 0 51.841242-5.418945 72.613865-16.256836l195.985183-102.959957L743.840536 189.730817c-7.947786 46.061034 11.379785 105.488799 44.977245 138.183101l158.594461 154.620568-219.106015 31.791145c-46.241665 6.683366-96.818487 43.351561-117.59111 85.438701L512.63221 798.278356 414.549303 599.764332c-20.772623-41.906509-71.168813-78.574705-117.591109-85.438701L78.03281 482.534486l158.594461-154.620568c33.416828-32.694302 52.744399-92.122067 44.977245-138.183101l-37.390722-218.202858 195.985183 102.959958c20.591992 11.018522 46.422297 16.437467 72.433233 16.437467z"  horiz-adv-x="1024" />

    
    <glyph glyph-name="fanhui" unicode="&#58902;" d="M184.858282 380.889525l44.319746 44.319746 500.551575-500.551575-44.319746-44.321552zM184.86912 380.932877L685.420695 881.484452l44.321552-44.319746-500.553381-500.553381z"  horiz-adv-x="1024" />

    
    <glyph glyph-name="gengduo" unicode="&#58903;" d="M124.455107 388.967366m-117.229847 0a117.229847 117.229847 0 1 1 234.459693 0 117.229847 117.229847 0 1 1-234.459693 0ZM513.896631 388.967366m-117.229847 0a117.229847 117.229847 0 1 1 234.459693 0 117.229847 117.229847 0 1 1-234.459693 0ZM903.157523 388.967366m-117.229846 0a117.229847 117.229847 0 1 1 234.459693 0 117.229847 117.229847 0 1 1-234.459693 0Z"  horiz-adv-x="1024" />

    
    <glyph glyph-name="shouye" unicode="&#58905;" d="M811.938614-124.206738H622.636797V158.120303c0 6.683366-6.863997 12.282942-15.173047 12.282943H421.232669c-8.309049 0-14.992415-5.599577-14.992415-12.282943v-282.507673H216.938437c-101.334274 0-183.882872 78.755336-183.882872 175.393191V461.219968c0 21.314518 6.322103 42.087141 18.243782 60.150291l2.709473 3.973893L473.254542 875.58864c8.489681 7.586523 18.966308 12.463574 30.346093 14.631152l2.890104 0.541894h15.895573l2.709472-0.541894c11.379785-1.986947 21.856412-7.044629 30.526724-14.450521L975.048862 525.705415l2.709473-3.973893c12.102311-18.06315 18.424413-39.016405 18.424413-60.330922v-410.214147c-0.361263-96.818487-82.909861-175.393191-184.244134-175.393191z m-124.274476 65.027341h124.093844c65.569236 0 118.85553 49.493032 118.85553 110.185218V461.219968c0 7.22526-1.806315 14.269889-5.418945 20.772623l-410.756042 343.199859-411.117304-343.199859c-3.431999-6.502734-5.238314-13.547363-5.238314-20.772623v-410.214147c0-60.872817 53.286294-110.185218 118.85553-110.185218h124.274475V158.120303c0 42.629035 35.945669 77.310284 80.019757 77.310284h186.411713c44.254719 0 80.200388-34.681249 80.200388-77.310284v-217.2997z"  horiz-adv-x="1024" />

    
    <glyph glyph-name="geren" unicode="&#58908;" d="M512.451579 350.492856c-148.479097 0-269.140942 120.842477-269.140942 269.140942S363.972482 888.77474 512.451579 888.77474s269.140942-120.842477 269.140942-269.140942-120.661845-269.140942-269.140942-269.140942z m0 477.589698c-114.881637 0-208.448756-93.567119-208.448757-208.448756s93.567119-208.448756 208.448757-208.448757S720.900335 504.752161 720.900335 619.633798 627.333216 828.082554 512.451579 828.082554zM896.654789-120.232845H128.248368c-47.506086 0-85.980596 38.655142-85.980596 85.980596v58.163344l1.806315 5.057683c57.802081 160.220145 250.355265 272.211678 468.377492 272.211677S923.026989 189.188922 980.82907 28.968778l1.806315-5.057683V-34.252249c0-47.506086-38.655142-85.980596-85.980596-85.980596zM103.140589 13.073205V-34.252249c0-13.908626 11.379785-25.288411 25.288411-25.288411h768.225789c13.908626 0 25.288411 11.379785 25.288411 25.288411v47.506086C870.463221 147.282413 703.017816 240.307638 512.451579 240.307638S154.439936 147.282413 103.140589 13.073205z"  horiz-adv-x="1024" />

    
    <glyph glyph-name="xiangji" unicode="&#58909;" d="M930.252249 0.067737H93.567119c-48.770506 0-88.328806 39.5583-88.328805 88.328806V542.684777c0 48.770506 39.5583 88.328806 88.328805 88.328806h115.604163c13.727994 0 27.094726 12.102311 28.359147 25.830305l3.431998 36.487564c4.515788 46.78356 46.422297 84.896807 93.56712 84.896807h354.940906c47.144823 0 89.051332-38.113247 93.56712-84.896807l3.431998-36.487564c1.264421-13.727994 14.631152-25.830305 28.359147-25.830305h115.604163c48.770506 0 88.328806-39.5583 88.328805-88.328806v-454.288234c-0.180632-48.770506-39.738931-88.328806-88.509437-88.328806zM93.567119 565.624978c-12.644205 0-22.940201-10.295996-22.940201-22.940201v-454.288234c0-12.463574 10.476627-22.940201 22.940201-22.940201H930.252249c12.463574 0 22.940201 10.476627 22.940201 22.940201V542.684777c0 12.644205-10.295996 22.940201-22.940201 22.940201h-115.604163c-47.144823 0-89.051332 38.113247-93.567119 84.896807l-3.431999 36.487564c-1.264421 13.727994-14.631152 25.830305-28.359146 25.830305H334.529547c-13.727994 0-27.094726-12.102311-28.359147-25.830305l-3.431998-36.487564c-4.515788-46.78356-46.422297-84.896807-93.56712-84.896807h-115.604163zM511.909684 127.954842c-117.049215 0-212.242018 95.192803-212.242018 212.242018s95.192803 212.242018 212.242018 212.242018S724.332334 457.426707 724.332334 340.19686s-95.373434-212.242018-212.42265-212.242018z m0 359.276063c-80.922914 0-146.853413-65.930499-146.853413-146.853413s65.930499-146.853413 146.853413-146.853414 146.853413 65.930499 146.853414 146.853414-65.749868 146.853413-146.853414 146.853413z"  horiz-adv-x="1024" />

    
    <glyph glyph-name="guanbi" unicode="&#58911;" d="M1019.122949 827.360028l-61.414711 61.414712-444.17287-444.17287L69.362498 888.77474l-61.414712-61.414712 444.17287-444.17287L7.947786-60.985712l61.414712-61.414711 444.17287 444.17287 444.17287-444.17287 61.414711 61.414711-444.17287 444.17287z"  horiz-adv-x="1024" />

    
    <glyph glyph-name="daishouhuo" unicode="&#58927;" d="M414.549303 185.034398h151.369201v-70.988182h-151.369201zM946.870348 114.226848h-49.493033v70.988181h44.977245V708.143235H377.519845v-79.658493c0-36.668195-29.804198-66.472394-66.472394-66.472394h-89.231963c-6.322103 0-19.146939-5.96084-23.120833-11.018522l-103.501852-126.08079c-5.599577-6.863997-11.560416-23.482096-11.560416-32.33304v-207.545598h20.953254v-70.988182H76.226495C41.183983 114.226848 12.644205 144.031046 12.644205 180.51861V392.760628c0 25.288411 11.560416 57.802081 27.636621 77.310284L143.782678 596.151702c17.521256 21.314518 50.39619 36.848827 78.03281 36.848827h84.716175v79.658494c0 36.668195 29.804198 66.472394 66.472394 66.472393h574.046922c36.668195 0 66.472394-29.804198 66.472394-66.472393v-532.140413c-0.180632-36.487564-29.98483-66.291762-66.653025-66.291762zM733.183277-8.241312c-74.42018 0-134.931734 60.511554-134.931734 134.931734s60.511554 134.931734 134.931734 134.931734 134.931734-60.511554 134.931734-134.931734-60.511554-134.931734-134.931734-134.931734z m0 198.694655c-35.223143 0-63.943553-28.720409-63.943552-63.943553s28.720409-63.943553 63.943552-63.943553 63.943553 28.720409 63.943553 63.943553-28.720409 63.943553-63.943553 63.943553zM247.28453-8.241312c-74.42018 0-134.931734 60.511554-134.931734 134.931734s60.511554 134.931734 134.931734 134.931734 134.931734-60.511554 134.931734-134.931734-60.511554-134.931734-134.931734-134.931734z m0 198.694655c-35.223143 0-63.943553-28.720409-63.943553-63.943553s28.720409-63.943553 63.943553-63.943553 63.943553 28.720409 63.943553 63.943553-28.720409 63.943553-63.943553 63.943553zM328.207444 345.435174H164.916564c-14.992415 0-27.094726 7.22526-32.694303 19.327571-5.599577 12.102311-3.251367 26.010937 6.502735 37.390721l80.742282 95.373435c10.657259 12.644205 29.804198 21.495149 46.241665 21.495149h66.833657c11.379785 0 22.398307-4.696419 30.346093-12.824837s12.282942-19.327571 11.741048-30.887987l-3.070736-88.148175c-0.903158-23.120833-20.230729-41.725878-43.351561-41.725877z m-11.199153 43.712824z m-108.740166 10.83789h109.101429L319.717763 464.290704h-54.00882c-0.903158-0.180632-3.973893-1.445052-4.87705-2.528841l-52.563768-61.775975z"  horiz-adv-x="1024" />

    


  </font>
</defs>
</svg>
